<svg xmlns="http://www.w3.org/2000/svg" width="400" height="300" viewBox="0 0 400 300" fill="none">
  <circle cx="200" cy="150" r="130" fill="#1B3A5C" opacity="0.02"/>
  <!-- Phone/form concept -->
  <rect x="140" y="30" width="120" height="220" rx="16" fill="white" stroke="#E2E8F0" stroke-width="2"/>
  <!-- Screen area -->
  <rect x="150" y="55" width="100" height="170" rx="4" fill="#F8FAFC"/>
  <!-- Form fields -->
  <rect x="160" y="65" width="80" height="22" rx="4" fill="white" stroke="#E2E8F0" stroke-width="1"/>
  <text x="168" y="80" font-family="system-ui,sans-serif" font-size="7" fill="#94A3B8">Nombre completo</text>
  <rect x="160" y="95" width="80" height="22" rx="4" fill="white" stroke="#E2E8F0" stroke-width="1"/>
  <text x="168" y="110" font-family="system-ui,sans-serif" font-size="7" fill="#94A3B8">WhatsApp</text>
  <rect x="160" y="125" width="80" height="22" rx="4" fill="white" stroke="#E2E8F0" stroke-width="1"/>
  <text x="168" y="140" font-family="system-ui,sans-serif" font-size="7" fill="#94A3B8">Carrera de interés</text>
  <rect x="160" y="155" width="80" height="22" rx="4" fill="white" stroke="#E2E8F0" stroke-width="1"/>
  <text x="168" y="170" font-family="system-ui,sans-serif" font-size="7" fill="#94A3B8">Años de experiencia</text>
  <!-- CTA button -->
  <rect x="160" y="190" width="80" height="26" rx="6" fill="#E8A838"/>
  <text x="200" y="207" font-family="system-ui,sans-serif" font-size="8" font-weight="700" fill="white" text-anchor="middle">Evaluar Perfil</text>
  <!-- Top notch -->
  <rect x="175" y="38" width="50" height="8" rx="4" fill="#E2E8F0"/>
  <!-- WhatsApp icon floating -->
  <g transform="translate(280, 100)">
    <circle cx="30" cy="30" r="28" fill="#25D366"/>
    <path d="M30 10C18.95 10 10 18.95 10 30C10 34.5 11.4 38.7 13.8 42.1L11 50L19.2 47.3C22.4 49.4 26.1 50.6 30 50.6C41.05 50.6 50 41.65 50 30.6C50 19.55 41.05 10 30 10Z" fill="white" opacity="0.2"/>
    <text x="30" y="36" font-family="system-ui,sans-serif" font-size="18" fill="white" text-anchor="middle">💬</text>
  </g>
  <!-- Phone icon -->
  <g transform="translate(60, 130)">
    <circle cx="25" cy="25" r="23" fill="#1B3A5C" opacity="0.06"/>
    <rect x="12" y="8" width="26" height="34" rx="4" fill="none" stroke="#1B3A5C" stroke-width="2"/>
    <circle cx="25" cy="36" r="2" fill="#1B3A5C" opacity="0.3"/>
    <rect x="18" y="13" width="14" height="18" rx="1" fill="#1B3A5C" opacity="0.05"/>
  </g>
  <!-- "Gratis" badge -->
  <g transform="translate(265, 50)">
    <rect width="70" height="28" rx="14" fill="#10B981"/>
    <text x="35" y="19" font-family="system-ui,sans-serif" font-size="10" font-weight="700" fill="white" text-anchor="middle">¡GRATIS!</text>
  </g>
  <!-- Email icon -->
  <g transform="translate(65, 200)">
    <rect x="0" y="5" width="30" height="20" rx="3" fill="none" stroke="#64748B" stroke-width="1.5"/>
    <path d="M0 8L15 18L30 8" fill="none" stroke="#64748B" stroke-width="1.5"/>
  </g>
</svg>
