<svg xmlns="http://www.w3.org/2000/svg" width="400" height="300" viewBox="0 0 400 300" fill="none">
  <circle cx="200" cy="150" r="130" fill="#1B3A5C" opacity="0.02"/>
  <!-- Exam paper -->
  <rect x="100" y="40" width="200" height="240" rx="6" fill="white" stroke="#E2E8F0" stroke-width="2"/>
  <!-- Header -->
  <rect x="100" y="40" width="200" height="40" rx="6" fill="#1B3A5C" opacity="0.04"/>
  <text x="200" y="58" font-family="system-ui,sans-serif" font-size="8" font-weight="600" fill="#64748B" text-anchor="middle" letter-spacing="1">CENTRO NACIONAL DE EVALUACIÓN</text>
  <text x="200" y="72" font-family="system-ui,sans-serif" font-size="11" font-weight="700" fill="#1B3A5C" text-anchor="middle">Examen EGAL</text>
  <!-- Question blocks -->
  <g transform="translate(115, 95)">
    <circle cx="6" cy="6" r="6" fill="#E8A838" opacity="0.2"/>
    <text x="6" y="9" font-family="system-ui,sans-serif" font-size="8" font-weight="600" fill="#E8A838" text-anchor="middle">1</text>
    <rect x="18" y="2" width="140" height="4" rx="2" fill="#E2E8F0"/>
    <rect x="18" y="10" width="100" height="3" rx="1.5" fill="#F1F5F9"/>
    <!-- Options -->
    <circle cx="24" cy="22" r="4" fill="none" stroke="#CBD5E1" stroke-width="1.5"/>
    <rect x="32" y="19" width="60" height="3" rx="1.5" fill="#F1F5F9"/>
    <circle cx="24" cy="33" r="4" fill="#10B981" opacity="0.2" stroke="#10B981" stroke-width="1.5"/>
    <path d="M22 33L23.5 34.5L26 32" stroke="#10B981" stroke-width="1.2" stroke-linecap="round"/>
    <rect x="32" y="30" width="70" height="3" rx="1.5" fill="#F1F5F9"/>
    <circle cx="24" cy="44" r="4" fill="none" stroke="#CBD5E1" stroke-width="1.5"/>
    <rect x="32" y="41" width="50" height="3" rx="1.5" fill="#F1F5F9"/>
    <circle cx="24" cy="55" r="4" fill="none" stroke="#CBD5E1" stroke-width="1.5"/>
    <rect x="32" y="52" width="65" height="3" rx="1.5" fill="#F1F5F9"/>
  </g>
  <g transform="translate(115, 165)">
    <circle cx="6" cy="6" r="6" fill="#E8A838" opacity="0.2"/>
    <text x="6" y="9" font-family="system-ui,sans-serif" font-size="8" font-weight="600" fill="#E8A838" text-anchor="middle">2</text>
    <rect x="18" y="2" width="130" height="4" rx="2" fill="#E2E8F0"/>
    <rect x="18" y="10" width="110" height="3" rx="1.5" fill="#F1F5F9"/>
    <circle cx="24" cy="22" r="4" fill="none" stroke="#CBD5E1" stroke-width="1.5"/>
    <rect x="32" y="19" width="55" height="3" rx="1.5" fill="#F1F5F9"/>
    <circle cx="24" cy="33" r="4" fill="none" stroke="#CBD5E1" stroke-width="1.5"/>
    <rect x="32" y="30" width="75" height="3" rx="1.5" fill="#F1F5F9"/>
  </g>
  <!-- Timer -->
  <g transform="translate(310, 50)">
    <circle cx="24" cy="24" r="22" fill="white" stroke="#E2E8F0" stroke-width="2"/>
    <circle cx="24" cy="24" r="18" fill="none" stroke="#E8A838" stroke-width="3" stroke-dasharray="85 113" stroke-dashoffset="-28" stroke-linecap="round"/>
    <text x="24" y="22" font-family="system-ui,sans-serif" font-size="8" font-weight="600" fill="#1B3A5C" text-anchor="middle">4-8</text>
    <text x="24" y="31" font-family="system-ui,sans-serif" font-size="6" fill="#64748B" text-anchor="middle">horas</text>
  </g>
  <!-- Stats -->
  <g transform="translate(310, 120)">
    <rect width="70" height="50" rx="6" fill="#F0F4FF" stroke="#E2E8F0" stroke-width="1"/>
    <text x="35" y="25" font-family="system-ui,sans-serif" font-size="14" font-weight="700" fill="#1B3A5C" text-anchor="middle">180+</text>
    <text x="35" y="40" font-family="system-ui,sans-serif" font-size="7" fill="#64748B" text-anchor="middle">reactivos</text>
  </g>
</svg>
