<svg xmlns="http://www.w3.org/2000/svg" width="400" height="300" viewBox="0 0 400 300" fill="none">
  <circle cx="200" cy="150" r="120" fill="#E8A838" opacity="0.03"/>
  <!-- Table -->
  <rect x="60" y="180" width="280" height="8" rx="4" fill="#1B3A5C" opacity="0.08"/>
  <!-- Candidate (center) -->
  <g transform="translate(175, 100)">
    <circle cx="25" cy="15" r="18" fill="#E8A838" opacity="0.15"/>
    <circle cx="25" cy="12" r="10" fill="none" stroke="#1B3A5C" stroke-width="2"/>
    <path d="M8 45C8 32 14 28 25 28C36 28 42 32 42 45" fill="none" stroke="#1B3A5C" stroke-width="2"/>
    <!-- Speech bubble -->
    <rect x="-10" y="-40" width="70" height="35" rx="8" fill="white" stroke="#E8A838" stroke-width="1.5"/>
    <path d="M20 -5L25 3L30 -5" fill="white" stroke="#E8A838" stroke-width="1.5"/>
    <rect x="2" y="-32" width="46" height="3" rx="1.5" fill="#E8A838" opacity="0.3"/>
    <rect x="2" y="-25" width="36" height="3" rx="1.5" fill="#E8A838" opacity="0.2"/>
    <rect x="2" y="-18" width="42" height="3" rx="1.5" fill="#E8A838" opacity="0.15"/>
  </g>
  <!-- Evaluator 1 (left) -->
  <g transform="translate(60, 110)">
    <circle cx="22" cy="12" r="10" fill="none" stroke="#64748B" stroke-width="2"/>
    <path d="M5 42C5 30 11 26 22 26C33 26 39 30 39 42" fill="none" stroke="#64748B" stroke-width="2"/>
    <!-- Clipboard -->
    <rect x="10" y="48" width="24" height="30" rx="2" fill="white" stroke="#CBD5E1" stroke-width="1.5"/>
    <rect x="14" y="53" width="16" height="2" rx="1" fill="#CBD5E1"/>
    <rect x="14" y="58" width="12" height="2" rx="1" fill="#CBD5E1"/>
    <rect x="14" y="63" width="14" height="2" rx="1" fill="#CBD5E1"/>
  </g>
  <!-- Evaluator 2 (right) -->
  <g transform="translate(290, 110)">
    <circle cx="22" cy="12" r="10" fill="none" stroke="#64748B" stroke-width="2"/>
    <path d="M5 42C5 30 11 26 22 26C33 26 39 30 39 42" fill="none" stroke="#64748B" stroke-width="2"/>
    <rect x="10" y="48" width="24" height="30" rx="2" fill="white" stroke="#CBD5E1" stroke-width="1.5"/>
    <rect x="14" y="53" width="16" height="2" rx="1" fill="#CBD5E1"/>
    <rect x="14" y="58" width="12" height="2" rx="1" fill="#CBD5E1"/>
    <rect x="14" y="63" width="14" height="2" rx="1" fill="#CBD5E1"/>
  </g>
  <!-- Labels -->
  <text x="82" y="205" font-family="system-ui,sans-serif" font-size="9" fill="#64748B" text-anchor="middle">Evaluador</text>
  <text x="200" y="205" font-family="system-ui,sans-serif" font-size="9" font-weight="600" fill="#1B3A5C" text-anchor="middle">Sustentante</text>
  <text x="312" y="205" font-family="system-ui,sans-serif" font-size="9" fill="#64748B" text-anchor="middle">Evaluador</text>
  <!-- Duration badge -->
  <g transform="translate(155, 230)">
    <rect width="90" height="28" rx="14" fill="#1B3A5C" opacity="0.06"/>
    <text x="45" y="19" font-family="system-ui,sans-serif" font-size="10" fill="#1B3A5C" text-anchor="middle">⏱ 45-60 min</text>
  </g>
</svg>
