<svg xmlns="http://www.w3.org/2000/svg" width="400" height="300" viewBox="0 0 400 300" fill="none">
  <circle cx="200" cy="150" r="130" fill="#E8A838" opacity="0.03"/>
  <!-- Person 1 -->
  <g transform="translate(40, 60)">
    <rect width="90" height="120" rx="8" fill="white" stroke="#E2E8F0" stroke-width="1.5"/>
    <circle cx="45" cy="35" r="18" fill="#F1F5F9"/>
    <circle cx="45" cy="30" r="10" fill="#CBD5E1"/>
    <path d="M28 55C28 46 34 43 45 43C56 43 62 46 62 55" fill="#CBD5E1"/>
    <rect x="15" y="68" width="60" height="4" rx="2" fill="#E2E8F0"/>
    <rect x="20" y="78" width="50" height="3" rx="1.5" fill="#F1F5F9"/>
    <rect x="22" y="88" width="46" height="3" rx="1.5" fill="#F1F5F9"/>
    <!-- Quote marks -->
    <text x="15" y="108" font-family="serif" font-size="20" fill="#E8A838" opacity="0.3">❝</text>
    <circle cx="78" cy="10" r="10" fill="#10B981"/>
    <path d="M73 10L76 13L83 7" stroke="white" stroke-width="2" stroke-linecap="round" stroke-linejoin="round"/>
  </g>
  <!-- Person 2 (center, larger) -->
  <g transform="translate(155, 40)">
    <rect width="90" height="140" rx="8" fill="white" stroke="#E8A838" stroke-width="2"/>
    <circle cx="45" cy="38" r="20" fill="#E8A838" opacity="0.1"/>
    <circle cx="45" cy="33" r="11" fill="#1B3A5C" opacity="0.2"/>
    <path d="M27 58C27 48 34 45 45 45C56 45 63 48 63 58" fill="#1B3A5C" opacity="0.2"/>
    <rect x="12" y="72" width="66" height="4" rx="2" fill="#1B3A5C" opacity="0.1"/>
    <rect x="15" y="83" width="60" height="3" rx="1.5" fill="#F1F5F9"/>
    <rect x="18" y="93" width="54" height="3" rx="1.5" fill="#F1F5F9"/>
    <rect x="15" y="103" width="60" height="3" rx="1.5" fill="#F1F5F9"/>
    <text x="12" y="125" font-family="serif" font-size="22" fill="#E8A838" opacity="0.4">❝</text>
    <circle cx="78" cy="10" r="12" fill="#10B981"/>
    <path d="M72 10L76 14L84 6" stroke="white" stroke-width="2" stroke-linecap="round" stroke-linejoin="round"/>
    <!-- Stars -->
    <g transform="translate(20, 113)" fill="#E8A838">
      <polygon points="5,0 6.5,3.5 10,3.5 7.5,6 8,10 5,8 2,10 2.5,6 0,3.5 3.5,3.5"/>
      <polygon points="17,0 18.5,3.5 22,3.5 19.5,6 20,10 17,8 14,10 14.5,6 12,3.5 15.5,3.5"/>
      <polygon points="29,0 30.5,3.5 34,3.5 31.5,6 32,10 29,8 26,10 26.5,6 24,3.5 27.5,3.5"/>
      <polygon points="41,0 42.5,3.5 46,3.5 43.5,6 44,10 41,8 38,10 38.5,6 36,3.5 39.5,3.5"/>
      <polygon points="53,0 54.5,3.5 58,3.5 55.5,6 56,10 53,8 50,10 50.5,6 48,3.5 51.5,3.5"/>
    </g>
  </g>
  <!-- Person 3 -->
  <g transform="translate(270, 60)">
    <rect width="90" height="120" rx="8" fill="white" stroke="#E2E8F0" stroke-width="1.5"/>
    <circle cx="45" cy="35" r="18" fill="#F1F5F9"/>
    <circle cx="45" cy="30" r="10" fill="#CBD5E1"/>
    <path d="M28 55C28 46 34 43 45 43C56 43 62 46 62 55" fill="#CBD5E1"/>
    <rect x="15" y="68" width="60" height="4" rx="2" fill="#E2E8F0"/>
    <rect x="20" y="78" width="50" height="3" rx="1.5" fill="#F1F5F9"/>
    <rect x="22" y="88" width="46" height="3" rx="1.5" fill="#F1F5F9"/>
    <text x="15" y="108" font-family="serif" font-size="20" fill="#E8A838" opacity="0.3">❝</text>
    <circle cx="78" cy="10" r="10" fill="#10B981"/>
    <path d="M73 10L76 13L83 7" stroke="white" stroke-width="2" stroke-linecap="round" stroke-linejoin="round"/>
  </g>
  <!-- Label -->
  <text x="200" y="230" font-family="system-ui,sans-serif" font-size="11" fill="#64748B" text-anchor="middle">Profesionales titulados exitosamente</text>
  <!-- Stats -->
  <g transform="translate(100, 245)">
    <rect width="200" height="30" rx="15" fill="#1B3A5C" opacity="0.04"/>
    <text x="100" y="20" font-family="system-ui,sans-serif" font-size="10" fill="#1B3A5C" text-anchor="middle">✓ Administración · Derecho · Contaduría · Pedagogía</text>
  </g>
</svg>
