<svg xmlns="http://www.w3.org/2000/svg" width="1200" height="630" viewBox="0 0 1200 630">
  <defs>
    <linearGradient id="bg" x1="0%" y1="0%" x2="100%" y2="100%">
      <stop offset="0%" style="stop-color:#0F2A4A"/>
      <stop offset="100%" style="stop-color:#1B3A5C"/>
    </linearGradient>
  </defs>
  <rect width="1200" height="630" fill="url(#bg)"/>
  <!-- Accent circle -->
  <circle cx="1050" cy="120" r="200" fill="#E8A838" opacity="0.08"/>
  <!-- Badge -->
  <rect x="60" y="50" rx="20" ry="20" width="280" height="40" fill="#E8A838" opacity="0.2"/>
  <text x="200" y="77" font-family="system-ui,sans-serif" font-size="16" font-weight="600" fill="#E8A838" text-anchor="middle">✓ Validez Oficial SEP · Acuerdo 286</text>
  <!-- Title -->
  <text x="60" y="180" font-family="system-ui,sans-serif" font-size="52" font-weight="800" fill="#FFFFFF">Obtén tu Título de</text>
  <text x="60" y="245" font-family="system-ui,sans-serif" font-size="52" font-weight="800" fill="#E8A838">Licenciatura</text>
  <text x="60" y="320" font-family="system-ui,sans-serif" font-size="38" font-weight="400" fill="rgba(255,255,255,0.7)">por Experiencia Laboral</text>
  <!-- Stats -->
  <line x1="60" y1="380" x2="600" y2="380" stroke="rgba(255,255,255,0.15)" stroke-width="1"/>
  <text x="60" y="430" font-family="system-ui,sans-serif" font-size="36" font-weight="800" fill="#E8A838">15</text>
  <text x="60" y="460" font-family="system-ui,sans-serif" font-size="14" fill="rgba(255,255,255,0.6)">Carreras Disponibles</text>
  <text x="250" y="430" font-family="system-ui,sans-serif" font-size="36" font-weight="800" fill="#E8A838">SEP</text>
  <text x="250" y="460" font-family="system-ui,sans-serif" font-size="14" fill="rgba(255,255,255,0.6)">Título Oficial</text>
  <text x="440" y="430" font-family="system-ui,sans-serif" font-size="36" font-weight="800" fill="#E8A838">100%</text>
  <text x="440" y="460" font-family="system-ui,sans-serif" font-size="14" fill="rgba(255,255,255,0.6)">Validez Federal</text>
  <!-- Logo -->
  <text x="60" y="570" font-family="system-ui,sans-serif" font-size="24" font-weight="700" fill="#FFFFFF">🎓 Titulación Express</text>
  <text x="60" y="598" font-family="system-ui,sans-serif" font-size="14" fill="rgba(255,255,255,0.5)">titulacionexpress.com</text>
  <!-- Graduation cap illustration -->
  <g transform="translate(850, 250)" opacity="0.15">
    <path d="M0 80L120 20L240 80L120 140Z" fill="#FFFFFF"/>
    <path d="M120 140L120 200M60 110L60 170C60 190 120 210 180 170L180 110" fill="none" stroke="#FFFFFF" stroke-width="4"/>
  </g>
</svg>
